<?xml version="1.0" standalone="no"?><!DOCTYPE svg PUBLIC "-//W3C//DTD SVG 1.1//EN" "http://www.w3.org/Graphics/SVG/1.1/DTD/svg11.dtd"><svg t="1583400849805" class="icon" viewBox="0 0 1024 1024" version="1.1" xmlns="http://www.w3.org/2000/svg" p-id="1051" xmlns:xlink="http://www.w3.org/1999/xlink" width="200" height="200"><defs><style type="text/css"></style></defs><path d="M669.392593 213.333333H347.022222c-11.757037 0-21.333333-9.576296-21.333333-21.333333v-85.333333c0-11.757037 9.576296-21.333333 21.333333-21.333334h322.370371c11.757037 0 21.333333 9.576296 21.333333 21.333334v85.333333c0 11.757037-9.576296 21.333333-21.333333 21.333333z m-301.037037-42.666666h279.703703v-42.666667h-279.703703v42.666667zM603.022222 938.666667H413.392593c-11.757037 0-21.333333-9.576296-21.333334-21.333334v-630.518518c0-11.757037 9.576296-21.333333 21.333334-21.333334s21.333333 9.576296 21.333333 21.333334V896h146.962963V286.814815c0-11.757037 9.576296-21.333333 21.333333-21.333334s21.333333 9.576296 21.333334 21.333334v630.518518c0 11.757037-9.576296 21.333333-21.333334 21.333334z" p-id="1052"></path><path d="M603.022222 308.148148c-4.266667 0-8.533333-1.232593-12.231111-3.887407-9.671111-6.731852-12.041481-20.100741-5.214815-29.677037l42.856297-61.250371H387.982222l42.856297 61.250371c6.731852 9.671111 4.456296 22.945185-5.214815 29.677037-9.671111 6.731852-22.945185 4.456296-29.677037-5.214815l-66.370371-94.814815c-4.551111-6.542222-5.12-15.075556-1.422222-22.091852s10.998519-11.472593 18.962963-11.472592h322.37037c7.964444 0 15.265185 4.456296 18.962963 11.472592s3.128889 15.54963-1.422222 22.091852l-66.37037 94.814815c-4.266667 5.973333-10.903704 9.102222-17.635556 9.102222zM603.022222 874.666667H413.392593c-11.757037 0-21.333333-9.576296-21.333334-21.333334s9.576296-21.333333 21.333334-21.333333h189.629629c11.757037 0 21.333333 9.576296 21.333334 21.333333s-9.576296 21.333333-21.333334 21.333334zM512 568.888889c-11.757037 0-21.333333-9.576296-21.333333-21.333333v-71.111112c0-11.757037 9.576296-21.333333 21.333333-21.333333s21.333333 9.576296 21.333333 21.333333v71.111112c0 11.757037-9.576296 21.333333-21.333333 21.333333z" p-id="1053"></path></svg>